<mxfile host="app.diagrams.net" modified="2023-12-13T02:51:26.299Z" agent="Mozilla/5.0 (X11; Linux x86_64) AppleWebKit/537.36 (KHTML, like Gecko) Chrome/119.0.0.0 Safari/537.36" version="22.1.8" etag="iR17hrBc-aXgEiH2DYU3" type="github">
  <diagram name="Page-1" id="2mI8U9-sfksS8p_uba_Y">
    <mxGraphModel>
      <root>
        <mxCell id="0" />
        <mxCell id="1" parent="0" />
      </root>
    </mxGraphModel>
  </diagram>
</mxfile>
